<?xml version="1.0" encoding="UTF-8"?>
<svg width="121px" height="41px" viewBox="0 0 121 41" version="1.1" xmlns="http://www.w3.org/2000/svg" xmlns:xlink="http://www.w3.org/1999/xlink">
    <title>leaflet-icon</title>
    <defs>
        <linearGradient x1="28.8840474%" y1="0%" x2="65.9297127%" y2="100%" id="linearGradient-1">
            <stop stop-color="#764A4E" offset="0%"></stop>
            <stop stop-color="#8B575C" offset="100%"></stop>
        </linearGradient>
        <path d="M26.1492739,34.4896575 C16.7810113,35.578629 10.8317058,27.9001445 9.59115209,24.7075898 C5.91187231,17.5200287 9.44233709,3.49471442 9.72702187,3.18733243 C10.8276781,4.12543923 17.664326,6.0992673 18.6625266,6.67686605 C23.3248664,9.3746822 25.4037181,11.7817182 27.1864011,14.474795 C30.5352109,19.5338 32.4661265,29.2505263 26.1492739,34.4896575 Z" id="path-2"></path>
        <filter x="-33.5%" y="-14.3%" width="149.2%" height="135.0%" filterUnits="objectBoundingBox" id="filter-3">
            <feOffset dx="-2" dy="1" in="SourceAlpha" result="shadowOffsetOuter1"></feOffset>
            <feGaussianBlur stdDeviation="1.5" in="shadowOffsetOuter1" result="shadowBlurOuter1"></feGaussianBlur>
            <feColorMatrix values="0 0 0 0 0.031372549   0 0 0 0 0.0588235294   0 0 0 0 0.0588235294  0 0 0 0.1 0" type="matrix" in="shadowBlurOuter1"></feColorMatrix>
        </filter>
        <linearGradient x1="28.4435572%" y1="0%" x2="65.0041835%" y2="97.1210186%" id="linearGradient-4">
            <stop stop-color="#487B6C" offset="0%"></stop>
            <stop stop-color="#55917F" offset="100%"></stop>
        </linearGradient>
        <path d="M28.01813,36.8829284 C17.9766882,38.0467867 11.5968837,29.8144806 10.2659921,26.3920998 C6.31960184,18.6868024 9.98502683,3.77714204 10.2900701,3.44777691 C11.4701984,4.45367985 17.6413943,5.92709302 19.8833503,7.09420457 C24.881874,9.98752556 27.210838,12.54318 29.1226586,15.43039 C32.7140562,20.8540784 34.7872823,31.269633 28.01813,36.8829284 Z" id="path-5"></path>
        <filter x="-16.7%" y="-26.8%" width="150.0%" height="135.8%" filterUnits="objectBoundingBox" id="filter-6">
            <feOffset dx="2" dy="-3" in="SourceAlpha" result="shadowOffsetOuter1"></feOffset>
            <feGaussianBlur stdDeviation="1.5" in="shadowOffsetOuter1" result="shadowBlurOuter1"></feGaussianBlur>
            <feColorMatrix values="0 0 0 0 0.031372549   0 0 0 0 0.0588235294   0 0 0 0 0.0588235294  0 0 0 0.1 0" type="matrix" in="shadowBlurOuter1"></feColorMatrix>
        </filter>
    </defs>
    <g id="Exploration" stroke="none" stroke-width="1" fill="none" fill-rule="evenodd">
        <g id="Web-Desktop" transform="translate(-26.000000, -10.000000)">
            <g id="leaflet-icon" transform="translate(24.000000, 10.000000)">
                <g id="Icon" transform="translate(-5.120082, -1.189691)">
                    <g id="Heart" transform="translate(0.000000, -0.000000)">
                        <g id="Back-Leaf" transform="translate(11.772235, 2.603400)">
                            <g id="Background" transform="translate(19.113882, 18.890927) rotate(-133.000000) translate(-19.113882, -18.890927) ">
                                <use fill="black" fill-opacity="1" filter="url(#filter-3)" xlink:href="#path-2"></use>
                                <use fill="url(#linearGradient-1)" fill-rule="evenodd" xlink:href="#path-2"></use>
                            </g>
                            <g id="Veins" opacity="0.5" transform="translate(13.590971, 3.368441)" fill="#F3F6F4">
                                <path d="M0.540476845,0.183232796 C0.38528155,0.183232796 2.95531886,10.7720286 5.36457346,18.2246971 C8.1165726,26.2591383 11.4135051,30.965463 11.5674218,30.965463 C11.7213385,30.965463 7.66781596,24.0687367 5.72365434,17.932442 C3.80596432,11.7634543 0.69567214,0.183232796 0.540476845,0.183232796 Z" id="Vein" transform="translate(6.052732, 15.574348) scale(-1, 1) rotate(-2.000000) translate(-6.052732, -15.574348) "></path>
                                <path d="M13.7168431,1.9926549 C13.7370203,2.03168543 13.7831636,4.43483615 13.9885959,6.17794911 C14.1319581,7.68853964 14.7441733,9.2721247 14.6831138,9.26754101 C14.6220542,9.26293739 13.9004614,7.77560349 13.7379149,6.33958672 C13.5806497,4.89518148 13.6966658,1.95362437 13.7168431,1.9926549 Z" id="Vein" transform="translate(14.172048, 5.629906) rotate(150.000000) translate(-14.172048, -5.629906) "></path>
                                <path d="M12.4360409,9.82553583 C12.4585237,9.87708851 12.4387464,13.0152354 12.6262471,15.2966502 C12.7480454,17.2726923 13.4179278,19.3581247 13.3463987,19.3503128 C13.2748696,19.3424569 12.4736405,17.3793658 12.3270297,15.5000851 C12.186876,13.610014 12.4135581,9.77398314 12.4360409,9.82553583 Z" id="Vein" transform="translate(12.816657, 14.587667) rotate(150.000000) translate(-12.816657, -14.587667) "></path>
                                <path d="M10.7823141,14.312933 C10.8039674,14.3578863 10.7849198,17.0943108 10.965503,19.0836757 C11.0828077,20.8067596 11.7279758,22.6252303 11.6590856,22.6184185 C11.5901955,22.6115682 10.8185265,20.8997776 10.6773247,19.2610684 C10.5423417,17.6129503 10.7606608,14.2679797 10.7823141,14.312933 Z" id="Vein" transform="translate(11.148888, 18.465451) rotate(150.000000) translate(-11.148888, -18.465451) "></path>
                                <path d="M8.74874588,18.7523616 C8.7679033,18.7885185 8.73411275,20.9844986 8.88402969,22.5816885 C8.9787852,23.964945 9.54666416,25.4267202 9.48488371,25.420998 C9.42310327,25.4152422 8.74105127,24.0386089 8.62433563,22.7229761 C8.51325818,21.3998156 8.72958846,18.7162047 8.74874588,18.7523616 Z" id="Vein" transform="translate(9.041173, 22.086499) rotate(150.000000) translate(-9.041173, -22.086499) "></path>
                                <path d="M6.12082239,23.2179282 C6.14102052,23.2426512 6.18639757,24.7645805 6.39156898,25.8685457 C6.53464562,26.8252391 7.14735338,27.8282736 7.08619078,27.825356 C7.02502817,27.8224257 6.30272133,26.8803207 6.14040133,25.9708502 C5.98337454,25.0560687 6.10062427,23.1932053 6.12082239,23.2179282 Z" id="Vein" transform="translate(6.575136, 25.521520) rotate(150.000000) translate(-6.575136, -25.521520) "></path>
                                <path d="M3.67151162,27.1220185 C3.68824087,27.1364514 3.78386643,28.047355 3.98755743,28.7048745 C4.13699714,29.2753292 4.36929936,29.9719675 4.32148848,29.9713612 C4.27367761,29.9707541 3.95832075,29.312669 3.79574405,28.7708647 C3.63708481,28.2257795 3.65478238,27.1075857 3.67151162,27.1220185 Z" id="Vein" transform="translate(3.994406, 28.546621) rotate(150.000000) translate(-3.994406, -28.546621) "></path>
                                <path d="M13.4591801,5.94765746 C13.4820411,5.99612522 13.4842416,8.95500788 13.6878721,11.1048593 C13.8236105,12.9671974 14.5086121,14.9293079 14.4369743,14.9223793 C14.3653365,14.915414 13.5497467,13.0694577 13.3898552,11.2985022 C13.23635,9.51733352 13.4363191,5.8991897 13.4591801,5.94765746 Z" id="Vein" transform="translate(13.887290, 10.434777) rotate(150.000000) translate(-13.887290, -10.434777) "></path>
                            </g>
                        </g>
                        <g id="Front-Leaf">
                            <g id="Background" transform="translate(20.456455, 20.221232) scale(-1, 1) rotate(-133.000000) translate(-20.456455, -20.221232) ">
                                <use fill="black" fill-opacity="1" filter="url(#filter-6)" xlink:href="#path-5"></use>
                                <use fill="url(#linearGradient-4)" fill-rule="evenodd" xlink:href="#path-5"></use>
                            </g>
                            <g id="Veins" opacity="0.5" transform="translate(13.657963, 3.513683)" fill="#F3F6F4">
                                <path d="M4.60629585,-1.42157846 C4.63729528,-1.36788587 5.03008412,1.75217639 5.5329117,4.0420145 C5.92473337,6.02101382 6.92086535,8.16740934 6.84284837,8.15205523 C6.76483139,8.13653557 5.64348006,6.09782435 5.23772141,4.2124427 C4.83748842,2.31701566 4.57529642,-1.47527105 4.60629585,-1.42157846 Z" id="Vein" transform="translate(5.725498, 3.364956) rotate(120.000000) translate(-5.725498, -3.364956) "></path>
                                <path d="M0.00798568107,0.362141329 C-0.156677022,0.362141329 2.25133704,11.9198792 4.80728032,20.28539 C6.79896489,27.5153074 11.5431323,34.9146988 11.7064384,34.9146988 C11.8697445,34.9146988 7.32029721,27.0919093 5.25776897,20.2040072 C3.22332845,13.2794061 0.172648384,0.362141329 0.00798568107,0.362141329 Z" id="Vein"></path>
                                <path d="M7.85172765,5.75092181 C7.88272487,5.81722195 8.27548577,9.66990591 8.7782776,12.4974208 C9.17007139,14.9411089 10.1661325,17.5914995 10.0881211,17.5725401 C10.0101097,17.5533762 8.88883809,15.0359553 8.4831083,12.7078673 C8.08290377,10.3673751 7.82073042,5.68462166 7.85172765,5.75092181 Z" id="Vein" transform="translate(8.970850, 11.661383) rotate(120.000000) translate(-8.970850, -11.661383) "></path>
                                <path d="M8.51862746,9.69169344 C8.54962469,9.75799359 8.94238559,13.6106775 9.44517741,16.4381925 C9.83697121,18.8818805 10.8330323,21.5322711 10.7550209,21.5133117 C10.6770095,21.4941479 9.5557379,18.9767269 9.15000811,16.6486389 C8.74980359,14.3081467 8.48763023,9.62539329 8.51862746,9.69169344 Z" id="Vein" transform="translate(9.637750, 15.602154) rotate(120.000000) translate(-9.637750, -15.602154) "></path>
                                <path d="M9.39470588,14.7033851 C9.42151429,14.7635652 9.76119939,18.2606168 10.1960464,20.8271304 C10.5348951,23.0452472 11.3963533,25.4509864 11.328884,25.4337771 C11.2614147,25.4163822 10.2916663,23.1313386 9.94076482,21.018151 C9.59464199,18.8937042 9.36789747,14.643205 9.39470588,14.7033851 Z" id="Vein" transform="translate(10.362596, 20.068265) rotate(120.000000) translate(-10.362596, -20.068265) "></path>
                                <path d="M10.0822036,20.2765969 C10.109012,20.323177 10.4486971,23.0299345 10.8835441,25.0164449 C11.2223927,26.7332925 12.083851,28.5953617 12.0163817,28.5820415 C11.9489123,28.5685777 10.9791639,26.7999281 10.6282625,25.164297 C10.2821397,23.5199512 10.0553951,20.2300168 10.0822036,20.2765969 Z" id="Vein" transform="translate(11.050094, 24.429075) rotate(120.000000) translate(-11.050094, -24.429075) "></path>
                                <path d="M10.8403526,26.4579824 C10.8587834,26.4807624 11.0923169,27.8045051 11.3912742,28.7760102 C11.6242327,29.6156364 11.9569448,30.6468984 11.9105597,30.6403801 C11.8641745,30.6337997 11.4570129,29.6482247 11.2157681,28.8483175 C10.9778087,28.0441484 10.8219218,26.4352023 10.8403526,26.4579824 Z" id="Vein" transform="translate(11.376905, 28.549062) rotate(120.000000) translate(-11.376905, -28.549062) "></path>
                                <path d="M6.6854496,2.00714946 C6.71644682,2.0697096 7.10920772,5.70506267 7.61199955,8.37307674 C8.00379334,10.6789157 8.99985448,13.1797971 8.92184305,13.1619072 C8.84383162,13.1438244 7.72256004,10.7684118 7.31683024,8.57165184 C6.91662572,6.36318741 6.65445237,1.94458932 6.6854496,2.00714946 Z" id="Vein" transform="translate(7.804572, 7.584200) rotate(120.000000) translate(-7.804572, -7.584200) "></path>
                            </g>
                        </g>
                    </g>
                </g>
                <g id="Leaflet" transform="translate(54.167969, 8.855469)" fill="#55917F" fill-rule="nonzero">
                    <polygon id="Path" points="2.73046875 2.05078125 2.73046875 17.578125 8.05078125 17.578125 8.05078125 20.1445312 0 20.1445312 0 2.05078125"></polygon>
                    <path d="M20.53125,15.0585938 L12.3515625,15.0585938 C12.421875,15.9960938 12.7265625,16.7421875 13.265625,17.296875 C13.8046875,17.84375 14.4960938,18.1171875 15.3398438,18.1171875 C15.9960938,18.1171875 16.5390625,17.9609375 16.96875,17.6484375 C17.390625,17.3359375 17.8710938,16.7578125 18.4101562,15.9140625 L20.6367188,17.15625 C20.2929688,17.7421875 19.9296875,18.2441406 19.546875,18.6621094 C19.1640625,19.0800781 18.7539062,19.4238281 18.3164062,19.6933594 C17.8789062,19.9628906 17.40625,20.1601562 16.8984375,20.2851562 C16.390625,20.4101562 15.8398438,20.4726562 15.2460938,20.4726562 C13.5429688,20.4726562 12.1757812,19.9257812 11.1445312,18.8320312 C10.1132812,17.7304688 9.59765625,16.2695312 9.59765625,14.4492188 C9.59765625,12.6445312 10.0976562,11.1835938 11.0976562,10.0664062 C12.1054688,8.96484375 13.4414062,8.4140625 15.1054688,8.4140625 C16.7851562,8.4140625 18.1132812,8.94921875 19.0898438,10.0195312 C20.0585938,11.0820312 20.5429688,12.5546875 20.5429688,14.4375 L20.53125,15.0585938 Z M17.8242188,12.9023438 C17.4570312,11.4960938 16.5703125,10.7929688 15.1640625,10.7929688 C14.84375,10.7929688 14.5429688,10.8417969 14.2617188,10.9394531 C13.9804688,11.0371094 13.7246094,11.1777344 13.4941406,11.3613281 C13.2636719,11.5449219 13.0664062,11.765625 12.9023438,12.0234375 C12.7382812,12.28125 12.6132812,12.5742188 12.5273438,12.9023438 L17.8242188,12.9023438 Z" id="Shape"></path>
                    <path d="M31.828125,8.73046875 L34.4765625,8.73046875 L34.4765625,20.1445312 L31.828125,20.1445312 L31.828125,18.9492188 C30.7421875,19.9648438 29.5742188,20.4726562 28.3242188,20.4726562 C26.7460938,20.4726562 25.4414062,19.9023438 24.4101562,18.7617188 C23.3867188,17.5976562 22.875,16.1445312 22.875,14.4023438 C22.875,12.6914062 23.3867188,11.265625 24.4101562,10.125 C25.4335938,8.984375 26.7148438,8.4140625 28.2539062,8.4140625 C29.5820312,8.4140625 30.7734375,8.9609375 31.828125,10.0546875 L31.828125,8.73046875 Z M25.5703125,14.4023438 C25.5703125,15.4960938 25.8632812,16.3867188 26.4492188,17.0742188 C27.0507812,17.7695312 27.8085938,18.1171875 28.7226562,18.1171875 C29.6992188,18.1171875 30.4882812,17.78125 31.0898438,17.109375 C31.6914062,16.4140625 31.9921875,15.53125 31.9921875,14.4609375 C31.9921875,13.390625 31.6914062,12.5078125 31.0898438,11.8125 C30.4882812,11.1328125 29.7070312,10.7929688 28.7460938,10.7929688 C27.8398438,10.7929688 27.0820312,11.1367188 26.4726562,11.8242188 C25.8710938,12.5195312 25.5703125,13.3789062 25.5703125,14.4023438 Z" id="Shape"></path>
                    <path d="M47.203125,20.1445312 L44.5664062,20.1445312 L44.5664062,4.65234375 C44.5664062,4.07421875 44.3710938,3.56640625 43.9804688,3.12890625 C43.5898438,2.68359375 43.109375,2.4609375 42.5390625,2.4609375 C41.96875,2.4609375 41.4882812,2.6796875 41.0976562,3.1171875 C40.7148438,3.546875 40.5234375,4.05859375 40.5234375,4.65234375 L40.5234375,8.73046875 L43.546875,8.73046875 L43.546875,11.1914062 L40.5234375,11.1914062 L40.5234375,20.1445312 L37.8867188,20.1445312 L37.8867188,11.1914062 L36.9492188,11.1914062 L36.9492188,8.73046875 L37.8867188,8.73046875 L37.8867188,4.65234375 C37.8867188,3.37109375 38.34375,2.27734375 39.2578125,1.37109375 C40.171875,0.45703125 41.2695312,0 42.5507812,0 C43.8320312,0 44.9257812,0.45703125 45.8320312,1.37109375 C46.7460938,2.27734375 47.203125,3.37109375 47.203125,4.65234375 L47.203125,20.1445312 Z" id="Path"></path>
                    <path d="M60.9375,15.0585938 L52.7578125,15.0585938 C52.828125,15.9960938 53.1328125,16.7421875 53.671875,17.296875 C54.2109375,17.84375 54.9023438,18.1171875 55.7460938,18.1171875 C56.4023438,18.1171875 56.9453125,17.9609375 57.375,17.6484375 C57.796875,17.3359375 58.2773438,16.7578125 58.8164062,15.9140625 L61.0429688,17.15625 C60.6992188,17.7421875 60.3359375,18.2441406 59.953125,18.6621094 C59.5703125,19.0800781 59.1601562,19.4238281 58.7226562,19.6933594 C58.2851562,19.9628906 57.8125,20.1601562 57.3046875,20.2851562 C56.796875,20.4101562 56.2460938,20.4726562 55.6523438,20.4726562 C53.9492188,20.4726562 52.5820312,19.9257812 51.5507812,18.8320312 C50.5195312,17.7304688 50.0039062,16.2695312 50.0039062,14.4492188 C50.0039062,12.6445312 50.5039062,11.1835938 51.5039062,10.0664062 C52.5117188,8.96484375 53.8476562,8.4140625 55.5117188,8.4140625 C57.1914062,8.4140625 58.5195312,8.94921875 59.4960938,10.0195312 C60.4648438,11.0820312 60.9492188,12.5546875 60.9492188,14.4375 L60.9375,15.0585938 Z M58.2304688,12.9023438 C57.8632812,11.4960938 56.9765625,10.7929688 55.5703125,10.7929688 C55.25,10.7929688 54.9492188,10.8417969 54.6679688,10.9394531 C54.3867188,11.0371094 54.1308594,11.1777344 53.9003906,11.3613281 C53.6699219,11.5449219 53.4726562,11.765625 53.3085938,12.0234375 C53.1445312,12.28125 53.0195312,12.5742188 52.9335938,12.9023438 L58.2304688,12.9023438 Z" id="Shape"></path>
                    <polygon id="Path" points="66.75 11.1914062 66.75 20.1445312 64.1132812 20.1445312 64.1132812 11.1914062 62.9882812 11.1914062 62.9882812 8.73046875 64.1132812 8.73046875 64.1132812 4.546875 66.75 4.546875 66.75 8.73046875 68.8007812 8.73046875 68.8007812 11.1914062"></polygon>
                </g>
            </g>
        </g>
    </g>
</svg>