<?xml version="1.0" encoding="UTF-8"?>
<svg width="79px" height="81px" viewBox="0 0 79 81" version="1.1" xmlns="http://www.w3.org/2000/svg" xmlns:xlink="http://www.w3.org/1999/xlink">
    <title>Icon</title>
    <defs>
        <linearGradient x1="28.8840474%" y1="0%" x2="65.9297127%" y2="100%" id="linearGradient-1">
            <stop stop-color="#764A4E" offset="0%"></stop>
            <stop stop-color="#8B575C" offset="100%"></stop>
        </linearGradient>
        <path d="M54.9134752,72.4282808 C35.2401237,74.715121 22.7465821,58.5903035 20.1414194,51.8859385 C12.4149318,36.7920603 19.8289079,7.33890029 20.4267459,6.6933981 C22.7381241,8.66342238 37.0950845,12.8084613 39.1913058,14.0214187 C48.9822195,19.6868326 53.3478079,24.7416081 57.0914423,30.3970696 C64.123943,41.0209799 68.1788657,61.4261052 54.9134752,72.4282808 Z" id="path-2"></path>
        <filter x="-16.0%" y="-6.8%" width="123.4%" height="116.7%" filterUnits="objectBoundingBox" id="filter-3">
            <feOffset dx="-2" dy="1" in="SourceAlpha" result="shadowOffsetOuter1"></feOffset>
            <feGaussianBlur stdDeviation="1.5" in="shadowOffsetOuter1" result="shadowBlurOuter1"></feGaussianBlur>
            <feColorMatrix values="0 0 0 0 0.031372549   0 0 0 0 0.0588235294   0 0 0 0 0.0588235294  0 0 0 0.1 0" type="matrix" in="shadowBlurOuter1"></feColorMatrix>
        </filter>
        <linearGradient x1="28.4435572%" y1="0%" x2="65.0041835%" y2="97.1210186%" id="linearGradient-4">
            <stop stop-color="#487B6C" offset="0%"></stop>
            <stop stop-color="#55917F" offset="100%"></stop>
        </linearGradient>
        <path d="M58.8380731,77.4541496 C37.7510452,79.8982521 24.3534557,62.6104093 21.5585835,55.4234097 C13.2711639,39.2422851 20.9685563,7.93199829 21.6091472,7.24033151 C24.0874167,9.35272769 37.0469279,12.4468953 41.7550356,14.8978296 C52.2519354,20.9738037 57.1427597,26.340678 61.157583,32.403819 C68.6995181,43.7935646 73.0532928,65.6662292 58.8380731,77.4541496 Z" id="path-5"></path>
        <filter x="-7.9%" y="-12.8%" width="123.8%" height="117.0%" filterUnits="objectBoundingBox" id="filter-6">
            <feOffset dx="2" dy="-3" in="SourceAlpha" result="shadowOffsetOuter1"></feOffset>
            <feGaussianBlur stdDeviation="1.5" in="shadowOffsetOuter1" result="shadowBlurOuter1"></feGaussianBlur>
            <feColorMatrix values="0 0 0 0 0.031372549   0 0 0 0 0.0588235294   0 0 0 0 0.0588235294  0 0 0 0.1 0" type="matrix" in="shadowBlurOuter1"></feColorMatrix>
        </filter>
    </defs>
    <g id="Exploration" stroke="none" stroke-width="1" fill="none" fill-rule="evenodd">
        <g id="Web-Desktop" transform="translate(-664.000000, -345.000000)">
            <g id="Heart" transform="translate(648.247829, 340.501649)">
                <g id="Back-Leaf" transform="translate(24.721694, 5.467141)">
                    <g id="Background" transform="translate(40.139153, 39.670947) rotate(-133.000000) translate(-40.139153, -39.670947) ">
                        <use fill="black" fill-opacity="1" filter="url(#filter-3)" xlink:href="#path-2"></use>
                        <use fill="url(#linearGradient-1)" fill-rule="evenodd" xlink:href="#path-2"></use>
                    </g>
                    <g id="Veins" opacity="0.5" transform="translate(28.541039, 7.073726)" fill="#F3F6F4">
                        <path d="M1.13500137,0.384788873 C0.809091256,0.384788873 6.20616962,22.6212601 11.2656043,38.271864 C17.0448025,55.1441905 23.9683607,65.0274723 24.2915858,65.0274723 C24.6148108,65.0274723 16.1024135,50.544347 12.0196741,37.6581283 C7.99252507,24.7032541 1.46091149,0.384788873 1.13500137,0.384788873 Z" id="Vein" transform="translate(12.710738, 32.706131) scale(-1, 1) rotate(-2.000000) translate(-12.710738, -32.706131) "></path>
                        <path d="M28.8053705,4.18457529 C28.8477427,4.2665394 28.9446436,9.31315591 29.3760515,12.9736931 C29.6771121,16.1459332 30.9627639,19.4714619 30.8345389,19.4618361 C30.7063139,19.4521685 29.1909689,16.3287673 28.8496214,13.3131321 C28.5193644,10.2798811 28.7629982,4.10261117 28.8053705,4.18457529 Z" id="Vein" transform="translate(29.761302, 11.822802) rotate(150.000000) translate(-29.761302, -11.822802) "></path>
                        <path d="M26.1156859,20.6336252 C26.1628997,20.7418859 26.1213674,27.3319943 26.515119,32.1229653 C26.7708954,36.2726538 28.1776484,40.6520618 28.0274373,40.6356568 C27.8772262,40.6191595 26.1946451,36.4966683 25.8867624,32.5501786 C25.5924396,28.5810295 26.068472,20.5253646 26.1156859,20.6336252 Z" id="Vein" transform="translate(26.914979, 30.634101) rotate(150.000000) translate(-26.914979, -30.634101) "></path>
                        <path d="M22.6428596,30.0571593 C22.6883315,30.1515612 22.6483315,35.8980526 23.0275562,40.075719 C23.2738962,43.6941951 24.6287491,47.5129837 24.4840798,47.4986788 C24.3394105,47.4842933 22.7189057,43.8895329 22.4223819,40.4482436 C22.1389177,36.9871956 22.5973876,29.9627573 22.6428596,30.0571593 Z" id="Vein" transform="translate(23.412664, 38.777448) rotate(150.000000) translate(-23.412664, -38.777448) "></path>
                        <path d="M18.3723663,39.3799594 C18.4125969,39.4558889 18.3416368,44.067447 18.6564624,47.4215458 C18.8554489,50.3263845 20.0479947,53.3961123 19.9182558,53.3840959 C19.7885169,53.3720087 18.3562077,50.4810787 18.1111048,47.7182499 C17.8778422,44.9396128 18.3321358,39.3040299 18.3723663,39.3799594 Z" id="Vein" transform="translate(18.986464, 46.381648) rotate(150.000000) translate(-18.986464, -46.381648) "></path>
                        <path d="M12.853727,48.7576493 C12.8961431,48.8095675 12.9914349,52.005619 13.4222949,54.3239459 C13.7227558,56.3330021 15.0094421,58.4393746 14.8810006,58.4332477 C14.7525592,58.427094 13.2357148,56.4486734 12.8948428,54.5387855 C12.5650865,52.6177442 12.811311,48.7057311 12.853727,48.7576493 Z" id="Vein" transform="translate(13.807786, 53.595193) rotate(150.000000) translate(-13.807786, -53.595193) "></path>
                        <path d="M7.71017441,56.9562389 C7.74530582,56.9865479 7.94611951,58.8994454 8.3738706,60.2802363 C8.687694,61.4781913 9.17552865,62.9411317 9.07512581,62.9398584 C8.97472298,62.9385835 8.31247357,61.5566049 7.9710625,60.4188159 C7.6378781,59.274137 7.67504299,56.9259299 7.71017441,56.9562389 Z" id="Vein" transform="translate(8.388252, 59.947903) rotate(150.000000) translate(-8.388252, -59.947903) "></path>
                        <path d="M28.2642782,12.4900807 C28.3122863,12.591863 28.3169074,18.8055165 28.7445314,23.3202045 C29.029582,27.2311144 30.4680855,31.3515465 30.317646,31.3369966 C30.1672066,31.3223693 28.454468,27.4458612 28.1186959,23.7268545 C27.796335,19.9864004 28.2162701,12.3882984 28.2642782,12.4900807 Z" id="Vein" transform="translate(29.163309, 21.913032) rotate(150.000000) translate(-29.163309, -21.913032) "></path>
                    </g>
                </g>
                <g id="Front-Leaf">
                    <g id="Background" transform="translate(42.958555, 42.464586) scale(-1, 1) rotate(-133.000000) translate(-42.958555, -42.464586) ">
                        <use fill="black" fill-opacity="1" filter="url(#filter-6)" xlink:href="#path-5"></use>
                        <use fill="url(#linearGradient-4)" fill-rule="evenodd" xlink:href="#path-5"></use>
                    </g>
                    <g id="Veins" opacity="0.5" transform="translate(28.681722, 7.378734)" fill="#F3F6F4">
                        <path d="M9.67322129,-2.98531476 C9.7383201,-2.87256032 10.5631766,3.67957042 11.6191146,8.48823045 C12.4419401,12.644129 14.5338172,17.1515596 14.3699816,17.119316 C14.2061459,17.0867247 11.8513081,12.8054311 10.999215,8.84612966 C10.1587257,4.86573289 9.60812248,-3.0980692 9.67322129,-2.98531476 Z" id="Vein" transform="translate(12.023546, 7.066408) rotate(120.000000) translate(-12.023546, -7.066408) "></path>
                        <path d="M0.0167699303,0.760496791 C-0.329021746,0.760496791 4.72780778,25.0317462 10.0952887,42.599319 C14.2778263,57.7821455 24.2405777,73.3208675 24.5835206,73.3208675 C24.9264634,73.3208675 15.3726241,56.8930095 11.0413148,42.4284151 C6.76898974,27.8867528 0.362561606,0.760496791 0.0167699303,0.760496791 Z" id="Vein"></path>
                        <path d="M16.4886281,12.0769358 C16.5537222,12.2161661 17.3785201,20.3068024 18.434383,26.2445837 C19.2571499,31.3763287 21.3488783,36.9421489 21.1850543,36.9023342 C21.0212303,36.8620901 18.66656,31.5755062 17.8145274,26.6865212 C16.9740979,21.7714877 16.4235339,11.9377055 16.4886281,12.0769358 Z" id="Vein" transform="translate(18.838786, 24.488904) rotate(120.000000) translate(-18.838786, -24.488904) "></path>
                        <path d="M17.8891177,20.3525562 C17.9542118,20.4917865 18.7790097,28.5824229 19.8348726,34.5202042 C20.6576395,39.6519491 22.7493679,45.2177693 22.5855439,45.1779546 C22.4217199,45.1377105 20.0670496,39.8511266 19.215017,34.9621417 C18.3745875,30.0471081 17.8240235,20.2133259 17.8891177,20.3525562 Z" id="Vein" transform="translate(20.239276, 32.764524) rotate(120.000000) translate(-20.239276, -32.764524) "></path>
                        <path d="M19.7288823,30.8771087 C19.78518,31.003487 20.4985187,38.3472953 21.4116974,43.7369738 C22.1232796,48.3950192 23.932342,53.4470714 23.7906564,53.4109318 C23.6489708,53.3744026 21.6124991,48.575811 20.8756061,44.138117 C20.1487482,39.6767788 19.6725847,30.7507304 19.7288823,30.8771087 Z" id="Vein" transform="translate(21.761451, 42.143356) rotate(120.000000) translate(-21.761451, -42.143356) "></path>
                        <path d="M21.1726275,42.5808535 C21.2289251,42.6786717 21.9422639,48.3628623 22.8554425,52.5345343 C23.5670248,56.1399141 25.3760872,60.0502596 25.2344015,60.0222872 C25.0927159,59.9940132 23.0562443,56.2798491 22.3193513,52.8450238 C21.5924933,49.3918976 21.1163298,42.4830353 21.1726275,42.5808535 Z" id="Vein" transform="translate(23.205196, 51.301056) rotate(120.000000) translate(-23.205196, -51.301056) "></path>
                        <path d="M22.7647405,55.561763 C22.8034452,55.6096011 23.2938655,58.3894608 23.9216759,60.4296215 C24.4108887,62.1928365 25.1095842,64.3584867 25.0121753,64.3447982 C24.9147664,64.3309793 24.0597271,62.2612718 23.5531131,60.5814667 C23.0533983,58.8927116 22.7260359,55.5139249 22.7647405,55.561763 Z" id="Vein" transform="translate(23.891501, 59.953029) rotate(120.000000) translate(-23.891501, -59.953029) "></path>
                        <path d="M14.0394441,4.21501386 C14.1045383,4.34639015 14.9293362,11.9806316 15.985199,17.5834611 C16.807966,22.4257231 18.8996944,27.6775739 18.7358704,27.6400051 C18.5720464,27.6020313 16.2173761,22.6136649 15.3653435,18.0004689 C14.524914,13.3626936 13.97435,4.08363757 14.0394441,4.21501386 Z" id="Vein" transform="translate(16.389602, 15.926819) rotate(120.000000) translate(-16.389602, -15.926819) "></path>
                    </g>
                </g>
            </g>
        </g>
    </g>
</svg>